<?xml version="1.0" encoding="utf-8"?><svg version="1.1" xmlns="http://www.w3.org/2000/svg" xmlns:xlink="http://www.w3.org/1999/xlink" x="0px" y="0px" width="128px" height="128px" viewBox="0 0 128 128" style="enable-background:new 0 0 128 128;" xml:space="preserve"><g><path fill="#EFC75E" d="M28,10c15.6,0,28,12.4,28,28S43.6,66,28,66S0,53.6,0,38S12.4,10,28,10z"/><path fill="#26A6D1" d="M66,102c-3.2,0-6,2.8-6,6v4c0,3.2,2.8,6,6,6s6-2.8,6-6v-4C72,104.8,69.2,102,66,102z M90,102c-3.2,0-6,2.8-6,6v4c0,3.2,2.8,6,6,6c3.2,0,6-2.8,6-6v-4C96,104.8,93.2,102,90,102z M42,102c-3.2,0-6,2.8-6,6v4c0,3.2,2.8,6,6,6c3.2,0,6-2.8,6-6v-4C48,104.8,45.2,102,42,102z"/><path fill="#E4E7E7" d="M107.6,42.4C104.8,28.8,92.8,18,78,18c-10.4,0-19.6,5.2-24.8,13.2C51.6,30.4,50,30,48,30c-6.8,0-12,5.2-12,12l0,0h-2c-12,0-22,10-22,22c0,0.8,0,1.6,0,2C5.2,66.8,0,72.8,0,80c0,7.6,6.4,14,14,14h88c14.4,0,26-11.6,26-26C128,55.6,119.2,45.2,107.6,42.4z"/></g></svg>
