<?xml version="1.0" encoding="utf-8"?><svg version="1.1" xmlns="http://www.w3.org/2000/svg" xmlns:xlink="http://www.w3.org/1999/xlink" x="0px" y="0px" width="128px" height="128px" viewBox="0 0 128 128" style="enable-background:new 0 0 128 128;" xml:space="preserve"><g><path fill="#EFC75E" d="M32.3,22.3C47.6,22.3,60,34.8,60,50.1c0,15.3-12.4,27.8-27.8,27.8S4.5,65.5,4.5,50.1C4.5,34.8,16.9,22.3,32.3,22.3z"/><path fill="#E4E7E7" d="M107.1,54.7c-2.5-13.9-14.6-24.4-29.3-24.4c-10.3,0-19.3,5.2-24.7,13.1c-1.6-0.7-3.3-1.2-5.1-1.2c-6.6,0-11.9,5.3-11.9,11.9l0,0.1l-2-0.1c-12.1,0-21.8,9.8-21.8,21.8c0,0.7,0,1.5,0.1,2.2c-6.8,0.9-12,6.7-12,13.7c0,7.7,6.2,13.9,13.9,13.9h87.3c14.3,0,25.8-11.5,25.8-25.8C127.5,67.5,118.8,57.2,107.1,54.7z"/></g></svg>
