<?xml version="1.0" encoding="utf-8"?>
<!-- Generator: Adobe Illustrator 21.0.2, SVG Export Plug-In . SVG Version: 6.00 Build 0)  -->
<svg version="1.1" id="Layer_1" xmlns="http://www.w3.org/2000/svg" xmlns:xlink="http://www.w3.org/1999/xlink" x="0px" y="0px"
	 width="128px" height="128px" viewBox="0 0 128 128" style="enable-background:new 0 0 128 128;" xml:space="preserve">
<style type="text/css">
	.st0{fill:#475F6C;}
	.st1{fill:#425864;}
</style>
<g>
	<path class="st0" d="M94.8,91.9c-28.3,0-51.3-23.2-51.3-51.8c0-16,7.2-30.3,18.5-39.8C27.6,1,0,29.2,0,64
		c0,35.2,28.3,63.7,63.1,63.7c28.3,0,52.2-18.7,60.2-44.6C115.2,88.6,105.4,91.9,94.8,91.9z"/>
	<g>
		<path class="st1" d="M61.9,0.3l-0.2,0l-0.9,1.1L61.9,0.3z M67.1,123.7C32.3,123.7,4,95.2,4,60c0-16.6,6.4-31.7,16.7-43
			C8,28.6,0,45.3,0,64c0,35.2,28.3,63.7,63.1,63.7c18.3,0,34.8-7.9,46.3-20.4C98.2,117.4,83.4,123.7,67.1,123.7z"/>
	</g>
</g>
</svg>
