<?xml version="1.0" encoding="utf-8"?>
<!-- Generator: Adobe Illustrator 21.0.2, SVG Export Plug-In . SVG Version: 6.00 Build 0)  -->
<svg version="1.1" id="Layer_1" xmlns="http://www.w3.org/2000/svg" xmlns:xlink="http://www.w3.org/1999/xlink" x="0px" y="0px"
	 width="128px" height="128px" viewBox="0 0 128 128" style="enable-background:new 0 0 128 128;" xml:space="preserve">
<style type="text/css">
	.st0{fill:#425864;}
	.st1{fill:#E4E7E7;}
</style>
<g>
	<path class="st0" d="M47,57.5c-12.9,0-23.3-10.2-23.3-22.8c0-7,3.3-13.3,8.4-17.5C16.5,17.6,4,30,4,45.2c0,15.5,12.8,28,28.7,28
		c12.8,0,23.7-8.2,27.4-19.6C56.3,56.1,51.8,57.5,47,57.5z"/>
	<path class="st1" d="M107.5,49.9c-2.6-14-14.8-24.6-29.5-24.6c-10.3,0-19.5,5.2-24.9,13.2c-1.6-0.7-3.3-1.2-5.1-1.2
		c-6.6,0-12,5.4-12,12l0,0.1l-2-0.1c-12.1,0-22,9.9-22,22c0,0.7,0,1.5,0.1,2.2C5.3,74.4,0,80.2,0,87.3c0,7.7,6.3,14,14,14h88
		c14.4,0,26-11.6,26-26C128,62.8,119.2,52.4,107.5,49.9z"/>
</g>
</svg>
