<?xml version="1.0" encoding="utf-8"?><svg version="1.1" xmlns="http://www.w3.org/2000/svg" xmlns:xlink="http://www.w3.org/1999/xlink" x="0px" y="0px" width="299.6px" height="299.6px" viewBox="0 0 299.6 299.6" style="enable-background:new 0 0 299.6 299.6;" xml:space="preserve"><g><path fill="#E4E7E7" d="M2,146.6c0,32.6,26.4,59.2,59.2,59.2h200.1c17.6,0,31.9-14.3,31.9-31.9c0-16.1-12-29.3-27.6-31.4c0.2-1.7,0.3-3.3,0.3-5c0-27.6-22.4-50-50-50l-4.6,0.2v-0.2c0-15.1-12.2-27.3-27.3-27.3c-4.2,0-8.2,1.1-11.7,2.7c-12.2-18.1-33-30-56.5-30c-33.5,0-61.3,24.1-67,55.9C22,94.6,2,118.3,2,146.6z"/></g><g><path fill="#E4E7E7" stroke="#FFFFFF" stroke-width="4" stroke-miterlimit="10" d="M251.6,118.4c-6-32.7-34.6-57.6-69-57.6c-24.2,0-45.6,12.3-58.2,30.9c-3.7-1.8-7.7-2.8-12-2.8c-15.5,0-28.1,12.6-28.1,28.1v0.2l-4.7-0.2c-28.4,0-51.5,23.1-51.5,51.5c0,1.7,0.1,3.4,0.3,5.1C12.4,175.9,0,189.4,0,206c0,18.1,14.7,32.8,32.8,32.8h206c33.6,0,60.9-27.2,60.9-60.9C299.6,148.7,279,124.3,251.6,118.4z"/></g></svg>
