<?xml version="1.0" encoding="utf-8"?>
<!-- Generator: Adobe Illustrator 21.0.2, SVG Export Plug-In . SVG Version: 6.00 Build 0)  -->
<svg version="1.1" id="Layer_1" xmlns="http://www.w3.org/2000/svg" xmlns:xlink="http://www.w3.org/1999/xlink" x="0px" y="0px"
	 width="128px" height="128px" viewBox="0 0 128 128" style="enable-background:new 0 0 128 128;" xml:space="preserve">
<style type="text/css">
	.st0{fill:#26A6D1;}
	.st1{fill:#E4E7E7;}
</style>
<g>
	<path class="st0" d="M66,98c-3.2,0-6,2.8-6,6v4c0,3.2,2.8,6,6,6s6-2.8,6-6v-4C72,100.8,69.2,98,66,98z M90,98c-3.2,0-6,2.8-6,6v4
		c0,3.2,2.8,6,6,6c3.2,0,6-2.8,6-6v-4C96,100.8,93.2,98,90,98z M42,98c-3.2,0-6,2.8-6,6v4c0,3.2,2.8,6,6,6c3.2,0,6-2.8,6-6v-4
		C48,100.8,45.2,98,42,98z"/>
	<path class="st1" d="M107.6,38.4C104.8,24.8,92.8,14,78,14c-10.4,0-19.6,5.2-24.8,13.2C51.6,26.4,50,26,48,26c-6.8,0-12,5.2-12,12
		l0,0h-2c-12,0-22,10-22,22c0,0.8,0,1.6,0,2C5.2,62.8,0,68.8,0,76c0,7.6,6.4,14,14,14h88c14.4,0,26-11.6,26-26
		C128,51.6,119.2,41.2,107.6,38.4z"/>
</g>
</svg>
