<?xml version="1.0" encoding="utf-8"?><svg version="1.1" xmlns="http://www.w3.org/2000/svg" xmlns:xlink="http://www.w3.org/1999/xlink" x="0px" y="0px" width="128px" height="128px" viewBox="0 0 128 128" style="enable-background:new 0 0 128 128;" xml:space="preserve"><g><path fill="#E4E7E7" d="M107.5,38.6C104.9,24.6,92.7,14,78,14c-10.3,0-19.5,5.2-24.9,13.2C51.6,26.5,49.9,26,48,26c-6.6,0-12,5.4-12,12l0,0.1L34,38c-12.1,0-22,9.9-22,22c0,0.7,0,1.5,0.1,2.2C5.3,63.1,0,68.9,0,76c0,7.7,6.3,14,14,14h88c14.4,0,26-11.6,26-26C128,51.5,119.2,41.1,107.5,38.6z"/><path fill="#EFC75E" d="M88,74.2l-19.8-0.1L80.1,50h-28L36,89.9h20.4L48,114L88,74.2z"/></g></svg>
