<?xml version="1.0" encoding="utf-8"?>
<!-- Generator: Adobe Illustrator 21.0.2, SVG Export Plug-In . SVG Version: 6.00 Build 0)  -->
<svg version="1.1" id="Capa_1" xmlns="http://www.w3.org/2000/svg" xmlns:xlink="http://www.w3.org/1999/xlink" x="0px" y="0px"
	 width="128px" height="128px" viewBox="0 0 128 128" style="enable-background:new 0 0 128 128;" xml:space="preserve">
<style type="text/css">
	.st0{fill:#444444;}
</style>
<g>
	<path class="st0" d="M85.2,27.7c0-2.4-2-4.4-4.4-4.4H4.4c-2.4,0-4.4,2-4.4,4.4s2,4.4,4.4,4.4h76.4C83.3,32.1,85.2,30.2,85.2,27.7z"
		/>
	<path class="st0" d="M123.6,41.4H34.5c-2.4,0-4.4,2-4.4,4.4s2,4.4,4.4,4.4h89.1c2.4,0,4.4-2,4.4-4.4S126,41.4,123.6,41.4z"/>
	<path class="st0" d="M102.7,68.4c2.4,0,4.4-2,4.4-4.4s-2-4.4-4.4-4.4H13.2c-2.4,0-4.4,2-4.4,4.4s2,4.4,4.4,4.4H102.7z"/>
	<path class="st0" d="M117.4,77.7H28c-2.4,0-4.4,2-4.4,4.4c0,2.4,2,4.4,4.4,4.4h89.4c2.4,0,4.4-2,4.4-4.4
		C121.8,79.7,119.8,77.7,117.4,77.7z"/>
	<path class="st0" d="M74,95.9H14.8c-2.4,0-4.4,2-4.4,4.4c0,2.4,2,4.4,4.4,4.4H74c2.4,0,4.4-2,4.4-4.4C78.4,97.8,76.5,95.9,74,95.9z
		"/>
</g>
</svg>
